<?xml version="1.0" encoding="iso-8859-1"?>
<!-- Generator: Adobe Illustrator 19.0.0, SVG Export Plug-In . SVG Version: 6.00 Build 0)  -->
<svg xmlns="http://www.w3.org/2000/svg" xmlns:xlink="http://www.w3.org/1999/xlink" version="1.1" id="Capa_1" x="0px" y="0px" viewBox="0 0 480.506 480.506" style="enable-background:new 0 0 480.506 480.506;" xml:space="preserve" width="512px" height="512px">
<g>
	<g>
		<g>
			<path d="M469.903,269.735c-0.585-1.587-1.658-2.947-3.065-3.886l-48-32c-2.048-1.387-4.628-1.73-6.968-0.928l-144,48     c-1.163,0.416-2.212,1.098-3.064,1.992l-0.064-0.064l-45.656,45.656h-52.688v16h56c2.122,0,4.156-0.844,5.656-2.344     l34.344-34.344v156.688h-192v-64h-16v72c0,4.418,3.582,8,8,8h208c0.86,0,1.714-0.14,2.528-0.416l144-48     c3.266-1.088,5.469-4.142,5.472-7.584V295.77l42.768-15.76C469.311,278.481,471.432,273.881,469.903,269.735z M406.398,418.738     l-128,42.664v-153.6l26.344,26.344c2.207,2.206,5.496,2.928,8.424,1.848l93.232-34.328V418.738z M312.438,319.234l-27.2-27.2     l128-42.672l31.656,21.096L312.438,319.234z" fill="#FFFFFF"/>
			<rect x="86.398" y="432.506" width="16" height="16" fill="#FFFFFF"/>
			<rect x="118.398" y="432.506" width="16" height="16" fill="#FFFFFF"/>
			<rect x="150.398" y="432.506" width="16" height="16" fill="#FFFFFF"/>
			<rect x="294.398" y="400.506" width="16" height="40" fill="#FFFFFF"/>
			<rect x="318.398" y="384.506" width="16" height="40" fill="#FFFFFF"/>
			<path d="M249.482,80.503c1.659-0.076,3.321-0.075,4.98,0.003v-16c-38.451-1.348-70.714,28.73-72.062,67.181     c-0.056,1.606-0.057,3.213-0.002,4.819h16C197.039,106.934,219.911,81.861,249.482,80.503z" fill="#FFFFFF"/>
			<path d="M254.398,240.506c57.438,0,104-46.562,104-104s-46.562-104-104-104s-104,46.562-104,104     C150.464,193.916,196.987,240.439,254.398,240.506z M254.398,48.506c48.601,0,88,39.399,88,88s-39.399,88-88,88s-88-39.399-88-88     C166.455,87.928,205.82,48.563,254.398,48.506z" fill="#FFFFFF"/>
			<path d="M134.398,307.818l2.344,2.344c3.124,3.123,8.188,3.123,11.312,0l24-24c3.123-3.124,3.123-8.188,0-11.312l-10.344-10.344     l15.888-15.872c62.062,42.551,146.867,26.734,189.417-35.328c42.551-62.062,26.734-146.867-35.328-189.417     S184.82-2.846,142.27,59.216c-31.834,46.431-31.834,107.659,0,154.089l-15.872,15.888l-10.344-10.344     c-3.124-3.123-8.188-3.123-11.312,0l-24,24c-3.123,3.124-3.123,8.188,0,11.312l2.344,2.344L20.742,318.85     c-14.169,14.154-14.182,37.116-0.027,51.285c6.808,6.816,16.049,10.642,25.683,10.635c9.623,0.02,18.857-3.798,25.656-10.608     L134.398,307.818z M134.398,136.506c0.075-66.243,53.757-119.925,120-120c66.274,0,120,53.726,120,120s-53.726,120-120,120     S134.398,202.78,134.398,136.506z M152.23,225.978c3.947,4.503,8.185,8.741,12.688,12.688l-14.52,14.528l-12.688-12.688     L152.23,225.978z M110.398,235.818l10.32,10.32l24,24l10.368,10.368l-12.688,12.688L97.71,248.506L110.398,235.818z      M32.054,358.397c-7.624-7.868-7.624-20.367,0-28.235l62.344-62.344l28.688,28.688L60.742,358.85     C52.695,366.647,39.851,366.444,32.054,358.397z" fill="#FFFFFF"/>
		</g>
	</g>
</g>
<g>
</g>
<g>
</g>
<g>
</g>
<g>
</g>
<g>
</g>
<g>
</g>
<g>
</g>
<g>
</g>
<g>
</g>
<g>
</g>
<g>
</g>
<g>
</g>
<g>
</g>
<g>
</g>
<g>
</g>
</svg>
