<?xml version="1.0" encoding="iso-8859-1"?>
<!-- Generator: Adobe Illustrator 19.0.0, SVG Export Plug-In . SVG Version: 6.00 Build 0)  -->
<svg xmlns="http://www.w3.org/2000/svg" xmlns:xlink="http://www.w3.org/1999/xlink" version="1.1" id="Capa_1" x="0px" y="0px" viewBox="0 0 480 480" style="enable-background:new 0 0 480 480;" xml:space="preserve" width="512px" height="512px">
<g>
	<g>
		<g>
			<path d="M472,0H152c-4.418,0-8,3.582-8,8v136h-32.8c-22.176-0.029-43.211,9.825-57.384,26.88     C42.694,184.258,26.198,191.998,8.8,192H0v16h8.8c22.176,0.029,43.211-9.825,57.384-26.88     c11.131-13.389,27.644-21.129,45.056-21.12h31.712l101.768,27.144c8.107,2.178,12.914,10.516,10.736,18.623     c-0.863,3.214-2.758,6.056-5.392,8.089c-3.731,2.9-8.608,3.877-13.168,2.64l-90.832-24.224c-3.671-0.982-7.526,0.753-9.224,4.152     l-6.648,13.296C120.97,228.329,101.968,240.073,81.2,240H64v16h17.2c26.465,0.076,50.732-14.71,62.8-38.264V368h-21.6     c-19.006-0.022-36.837-9.197-47.904-24.648C60.434,323.701,37.764,312.029,13.6,312H0v16h13.6     c19.006,0.022,36.837,9.197,47.904,24.648C75.566,372.299,98.236,383.971,122.4,384H144v88c0,4.418,3.582,8,8,8h320     c4.418,0,8-3.582,8-8V8C480,3.582,476.418,0,472,0z M464,464H160V212.544l72.8,19.408c16.655,4.418,33.739-5.502,38.157-22.157     c0.691-2.604,1.041-5.286,1.043-7.979c-0.004-14.129-9.501-26.492-23.152-30.136L160,148V16h304V464z" fill="#FFFFFF"/>
			<rect x="232" y="40" width="160" height="16" fill="#FFFFFF"/>
			<rect x="232" y="136" width="48" height="16" fill="#FFFFFF"/>
			<rect x="296" y="136" width="88" height="16" fill="#FFFFFF"/>
			<rect x="280" y="176" width="80" height="16" fill="#FFFFFF"/>
			<rect x="280" y="216" width="144" height="16" fill="#FFFFFF"/>
			<rect x="200" y="256" width="224" height="16" fill="#FFFFFF"/>
			<rect x="400" y="136" width="24" height="16" fill="#FFFFFF"/>
			<rect x="376" y="176" width="48" height="16" fill="#FFFFFF"/>
			<rect x="200" y="296" width="160" height="16" fill="#FFFFFF"/>
			<rect x="200" y="336" width="224" height="16" fill="#FFFFFF"/>
			<rect x="200" y="376" width="48" height="16" fill="#FFFFFF"/>
			<rect x="264" y="376" width="160" height="16" fill="#FFFFFF"/>
			<rect x="376" y="296" width="48" height="16" fill="#FFFFFF"/>
			<rect x="200" y="96" width="224" height="16" fill="#FFFFFF"/>
		</g>
	</g>
</g>
<g>
</g>
<g>
</g>
<g>
</g>
<g>
</g>
<g>
</g>
<g>
</g>
<g>
</g>
<g>
</g>
<g>
</g>
<g>
</g>
<g>
</g>
<g>
</g>
<g>
</g>
<g>
</g>
<g>
</g>
</svg>
