<?xml version="1.0" encoding="iso-8859-1"?>
<!-- Generator: Adobe Illustrator 19.0.0, SVG Export Plug-In . SVG Version: 6.00 Build 0)  -->
<svg xmlns="http://www.w3.org/2000/svg" xmlns:xlink="http://www.w3.org/1999/xlink" version="1.1" id="Capa_1" x="0px" y="0px" viewBox="0 0 480 480" style="enable-background:new 0 0 480 480;" xml:space="preserve" width="512px" height="512px">
<g>
	<g>
		<g>
			<path d="M440,32H40c-4.418,0-8,3.582-8,8v232c0,4.418,3.582,8,8,8h400c4.418,0,8-3.582,8-8V40C448,35.582,444.418,32,440,32z      M432,264H48V48h384V264z" fill="#FFFFFF"/>
			<rect x="224" y="328" width="32" height="16" fill="#FFFFFF"/>
			<path d="M288,152c13.255,0,24-10.745,24-24s-10.745-24-24-24s-24,10.745-24,24S274.745,152,288,152z M288,120     c4.418,0,8,3.582,8,8s-3.582,8-8,8s-8-3.582-8-8S283.582,120,288,120z" fill="#FFFFFF"/>
			<path d="M281.528,244.704c2.597,3.574,7.6,4.367,11.174,1.77c0.679-0.493,1.276-1.091,1.77-1.77l54.584-75.056     c7.135-9.766,10.969-21.553,10.944-33.648c-0.044-39.746-32.254-71.956-72-72c-39.746,0.044-71.956,32.254-72,72     c-0.025,12.095,3.809,23.882,10.944,33.648L281.528,244.704z M288,80c30.928,0,56,25.072,56,56     c0.017,8.71-2.743,17.198-7.88,24.232L288,226.4l-48.12-66.168c-5.137-7.034-7.897-15.522-7.88-24.232     C232,105.072,257.072,80,288,80z" fill="#FFFFFF"/>
			<path d="M120,248h144v-16H128V120h24v32c0,4.418,3.582,8,8,8h40v-16h-32v-24h32v-16h-80c-4.418,0-8,3.582-8,8v128     C112,244.418,115.582,248,120,248z" fill="#FFFFFF"/>
			<rect x="144" y="200" width="16" height="16" fill="#FFFFFF"/>
			<rect x="176" y="200" width="16" height="16" fill="#FFFFFF"/>
			<rect x="208" y="200" width="16" height="16" fill="#FFFFFF"/>
			<path d="M456,0H24C10.745,0,0,10.745,0,24v328c0,13.255,10.745,24,24,24h128v88h-40v16h256v-16h-40v-88h128     c13.255,0,24-10.745,24-24V24C480,10.745,469.255,0,456,0z M312,464H168v-88h144V464z M464,352c0,4.418-3.582,8-8,8H24     c-4.418,0-8-3.582-8-8v-40h448V352z M464,296H16V24c0-4.418,3.582-8,8-8h432c4.418,0,8,3.582,8,8V296z" fill="#FFFFFF"/>
		</g>
	</g>
</g>
<g>
</g>
<g>
</g>
<g>
</g>
<g>
</g>
<g>
</g>
<g>
</g>
<g>
</g>
<g>
</g>
<g>
</g>
<g>
</g>
<g>
</g>
<g>
</g>
<g>
</g>
<g>
</g>
<g>
</g>
</svg>
